<svg xmlns:xlink="http://www.w3.org/1999/xlink">
<defs>
  <symbol id="Kasten">
    <rect x="0" y="0" width="60" height="60"/>
    </symbol>
  <symbol id="Rahmen">
    <rect x="0" y="0" width="46" height="13" fill="Moccasin" stroke="black"/>
    </symbol>
  <symbol id="großerRahmen">
    <rect x="0" y="0" width="46" height="33" fill="Moccasin" stroke="black"/>
    </symbol>
  <marker id="pfeilspitze"
    viewbox="0 0 5 10"
    refX="0" refY="5"
    markerWidth="5" markerHeight="10"
    markerUnits="userSpaceOnUse"
    orient="auto" >
    <polyline points="0,5 0,0 5,5 0,10 0,5" fill="black" stroke="none"/>
    </marker>  
  <symbol id="kurzePfeile">
    <polyline points="0,0 35,0" stroke-width="1" marker-end="url(#pfeilspitze)"/>
    <polyline points="0,10 35,10" stroke-width="3" marker-end="url(#pfeilspitze)"/>
    <polyline points="40,20 5,20" stroke-width="1" marker-end="url(#pfeilspitze)"/>
    </symbol>
  <symbol id="langePfeileoben">
    <polyline points="100,0 115,0 115,-60 -80,-60 -80,0 -65,0" stroke-width="1" marker-end="url(#pfeilspitze)"/>
    <polyline points="100,10 115,10 115,-60 -80,-60 -80,10 -65,10" stroke-width="3" marker-end="url(#pfeilspitze)"/>
    <polyline points="-60,20 -80,20 -80,-60 115,-60 115,20 105,20" stroke-width="1" marker-end="url(#pfeilspitze)"/>
    </symbol>
  <symbol id="langePfeileunten">
    <polyline points="100,0 115,0 115,80 -80,80 -80,0 -65,0" stroke-width="1" marker-end="url(#pfeilspitze)"/>
    <polyline points="100,10 115,10 115,80 -80,80 -80,10 -65,10" stroke-width="3" marker-end="url(#pfeilspitze)"/>
    <polyline points="-60,20 -80,20 -80,80 115,80 115,20 105,20" stroke-width="1" marker-end="url(#pfeilspitze)"/>
    </symbol>
  <symbol id="extraPfeile">
    <polyline points="0,0 15,0" stroke-width="1" marker-end="url(#pfeilspitze)"/>
    <polyline points="0,40 15,40" stroke-width="3" marker-end="url(#pfeilspitze)"/>
    <polyline points="20,80 5,80" stroke-width="1" marker-end="url(#pfeilspitze)"/>
    </symbol>
  </defs>

<g fill="none" stroke="black" transform="translate(10,10)">
<use xlink:href="#Kasten" x="40" y="40"/>
<use xlink:href="#Kasten" x="140" y="40"/>
<use xlink:href="#Kasten" x="40" y="140"/>
<use xlink:href="#Kasten" x="140" y="140"/>
<use xlink:href="#kurzePfeile" transform="translate(100,60)"/>
<use xlink:href="#kurzePfeile" transform="translate(100,160)"/>
<use xlink:href="#kurzePfeile" transform="translate(80,100) rotate(90)"/>
<use xlink:href="#kurzePfeile" transform="translate(180,100) rotate(90)"/>
<use xlink:href="#langePfeileoben" transform="translate(100,60)"/>
<use xlink:href="#langePfeileoben" transform="translate(180,100) rotate(90)"/>
<use xlink:href="#langePfeileunten" transform="translate(100,160)"/>
<use xlink:href="#langePfeileunten" transform="translate(80,100) rotate(90)"/>
<g stroke="green" stroke-dasharray="4,4">
<polyline id="poly1" points="140,40 280,0"/>
<polyline id="poly2" points="140,100 280,240"/>
<polyline id="poly3" points="200,40 520,0"/>
<polyline id="poly4" points="200,100 520,240"/>
  </g>
<g id="Vergrößerung" transform="translate(280,0)"><g id="V2">
<rect x="0" y="0" width="240" height="240" fill="white" opacity="0.7"/>
<use xlink:href="#extraPfeile" transform="translate(-10 ,80)"/>
<use xlink:href="#extraPfeile" transform="translate(230 ,80)"/>
<use xlink:href="#extraPfeile" transform="translate(160 ,-10) rotate(90)"/>
<use xlink:href="#extraPfeile" transform="translate(160 ,230) rotate(90)"/>
<g fill="black" stroke="none" font-family="monospace" font-size="12">
<g transform="translate(1)">
<use xlink:href="#Rahmen" x="10" y="74"/>
<use xlink:href="#großerRahmen" x="10" y="104"/>
<use xlink:href="#Rahmen" x="10" y="154"/>
<text x="12" y="085" align="left">2804 @</text>
<text x="12" y="115" align="left">2000 @</text>
<text x="12" y="122" align="left">…</text>
<text x="12" y="135" align="left">23FF @</text>
<text x="12" y="165" align="left">2805 !</text>
  </g>
<g transform="translate(173)">
<use xlink:href="#Rahmen" x="10" y="74"/>
<use xlink:href="#großerRahmen" x="10" y="104"/>
<use xlink:href="#Rahmen" x="10" y="154"/>
<text x="12" y="085" align="left">2804 !</text>
<text x="12" y="115" align="left">2000 !</text>
<text x="12" y="122" align="left">…</text>
<text x="12" y="135" align="left">23FF !</text>
<text x="12" y="165" align="left">2805 @</text>
  </g>
<g transform="translate(240) rotate(90)">
<use xlink:href="#Rahmen" x="10" y="74"/>
<use xlink:href="#großerRahmen" x="10" y="104"/>
<use xlink:href="#Rahmen" x="10" y="154"/>
<text x="12" y="085" align="left">2806 @</text>
<text x="12" y="115" align="left">2400 @</text>
<text x="12" y="122" align="left">…</text>
<text x="12" y="135" align="left">27FF @</text>
<text x="12" y="165" align="left">2807 !</text>
  </g>
<g transform="translate(240,173) rotate(90)">
<use xlink:href="#Rahmen" x="10" y="74"/>
<use xlink:href="#großerRahmen" x="10" y="104"/>
<use xlink:href="#Rahmen" x="10" y="154"/>
<text x="12" y="085" align="left">2806 !</text>
<text x="12" y="115" align="left">2400 !</text>
<text x="12" y="122" align="left">…</text>
<text x="12" y="135" align="left">27FF !</text>
<text x="12" y="165" align="left">2807 @</text>
  </g>
<text x="-150" y="173" align="center" transform="translate(0,0) rotate(-45)">ein einzelner Forth-Prozessor (klick hier)</text>
  </g>
  </g>
<g>
  </g></g>
  </g>
<animateTransform id="a1" xlink:href="#V2" attributeName="transform" type="scale" values="1; 0.25; 1" calcMode="spline" keySplines="0.5 0 0.5 1; 0.5 0 0.5 1" begin="Vergrößerung.click; 98s" dur="2s"/>
<animateTransform xlink:href="#Vergrößerung" attributeName="transform" type="translate" values="280,0; 140,40; 280,0" calcMode="spline" keySplines="0.5 0 0.5 1; 0.5 0 0.5 1" begin="a1.begin" dur="2s"/>
<animate xlink:href="#poly1" attributeName="points" values="140,40 280,0; 140,40 140,40; 140,40 280,0" calcMode="spline" keySplines="0.5 0 0.5 1; 0.5 0 0.5 1" begin="a1.begin" dur="2s"/>
<animate xlink:href="#poly2" attributeName="points" values="140,100 280,240; 140,100 140,100; 140,100 280,240" calcMode="spline" keySplines="0.5 0 0.5 1; 0.5 0 0.5 1" begin="a1.begin" dur="2s"/>
<animate xlink:href="#poly3" attributeName="points" values="200,40 520,0; 200,40 140,40; 200,40 520,0" calcMode="spline" keySplines="0.5 0 0.5 1; 0.5 0 0.5 1" begin="a1.begin" dur="2s"/>
<animate xlink:href="#poly4" attributeName="points" values="200,100 520,240; 200,100 200,100; 200,100 520,240" calcMode="spline" keySplines="0.5 0 0.5 1; 0.5 0 0.5 1" begin="a1.begin" dur="2s"/>

  </svg>
